<?xml version="1.0" standalone="no"?>
<!DOCTYPE svg PUBLIC "-//W3C//DTD SVG 20010904//EN"
 "http://www.w3.org/TR/2001/REC-SVG-20010904/DTD/svg10.dtd">
<svg version="1.0" xmlns="http://www.w3.org/2000/svg"
 width="123.000000pt" height="80.000000pt" viewBox="0 0 123.000000 80.000000"
 preserveAspectRatio="xMidYMid meet">
<metadata>
Created by potrace 1.10, written by Peter Selinger 2001-2011
</metadata>
<g transform="translate(0.000000,80.000000) scale(0.100000,-0.100000)"
fill="#5a4d4c" stroke="none">
<path d="M581 791 c-10 -7 -2 -8 25 -5 56 7 109 -23 108 -62 0 -16 -4 -37 -8
-46 -6 -13 -4 -18 7 -18 9 0 20 8 26 18 9 16 10 16 16 0 6 -16 55 -27 55 -13
0 19 -44 87 -70 109 -26 21 -41 26 -88 26 -31 0 -64 -4 -71 -9z"/>
<path d="M98 751 c14 -14 22 -34 22 -56 0 -31 3 -35 25 -35 23 0 25 4 25 40 0
38 2 40 31 40 30 0 80 -38 90 -68 3 -8 15 -12 32 -10 25 3 26 5 14 28 -24 48
-72 70 -153 70 -40 0 -81 3 -91 6 -15 6 -14 3 5 -15z"/>
<path d="M120 425 c0 -85 -4 -155 -8 -155 -18 0 -64 60 -77 101 -11 36 -14 39
-14 17 -3 -91 86 -167 195 -168 172 -1 271 118 202 242 -16 27 -36 45 -70 61
-44 20 -46 23 -31 39 15 17 14 18 -10 18 -14 0 -29 -5 -33 -11 -3 -6 -20 -17
-38 -24 l-31 -14 42 -6 c86 -15 135 -65 135 -140 0 -85 -57 -135 -154 -135
l-58 0 0 165 0 165 -25 0 -25 0 0 -155z"/>
<path d="M615 463 c-73 -177 -91 -210 -122 -221 -23 -9 -14 -10 52 -11 57 0
74 3 58 9 -29 12 -29 20 4 108 l28 72 106 0 107 0 27 -79 c28 -86 83 -186 118
-214 57 -47 82 -57 142 -56 l60 1 -44 9 c-108 21 -174 117 -267 386 -37 106
-41 113 -66 113 l-27 0 24 -70 24 -70 -95 0 c-52 0 -94 4 -94 9 0 10 8 32 34
94 15 35 15 37 -2 37 -15 0 -30 -26 -67 -117z"/>
</g>
</svg>
